PathFileType	4	(X/Y/Z)	D:\Share\Shared_Data\Ergonomics\Sit To Stand Pertubation\S1\Perturbed_NoHarness.trc
DataRate	CameraRate	NumFrames	NumMarkers	Units	OrigDataRate	OrigDataStartFrame	OrigNumFrames	
100	100	8	18	m	100	3474	231
Frame#	Time	L_ASIS			R_ASIS			R_Pelvis			V_Sacral			L_Pelvis			Clavical			R_Acromium			L_Acromium			Sternum			Torso			R_Thigh_Med			R_Thigh_Lat			R_Thigh			R_Shank_Med			R_Shank_Lat			R_Shank			R_Heel			R_Toe			
		X1	Y1	Z1	X2	Y2	Z2	X3	Y3	Z3	X4	Y4	Z4	X5	Y5	Z5	X6	Y6	Z6	X7	Y7	Z7	X8	Y8	Z8	X9	Y9	Z9	X10	Y10	Z10	X11	Y11	Z11	X12	Y12	Z12	X13	Y13	Z13	X14	Y14	Z14	X15	Y15	Z15	X16	Y16	Z16	X17	Y17	Z17	X18	Y18	Z18	

3474	34.73	0.51021494	0.90252307	-0.099525574	0.48473486	0.89724237	0.098542572	0.40399887	0.90561176	0.1275185	0.32081	0.89917041	-0.017977987	0.42557861	0.90344617	-0.16337935	0.4633226	1.2508018	-0.0071780019	0.3894884	1.3176191	0.1400226	0.36055167	1.2724716	-0.21252734	0.44433536	1.2625876	0.094522758	0.46133264	1.2563204	-0.067314125	0.36005771	0.4204165	0.063239342	0.37823932	0.44308102	0.18044582	0.47352264	0.60071246	0.11764216	0.34427792	0.10219134	0.10651435	0.32036279	0.10323454	0.18734871	0.34111722	0.31449741	0.20059496	0.2726362	0.03442057	0.13143613	0.47873706	0.044993725	0.14873636
3475	34.74	0.5104873	0.90241394	-0.099581085	0.48488934	0.89719891	0.098417274	0.40406805	0.90517108	0.12719704	0.32104379	0.89914856	-0.018162342	0.42587848	0.90334644	-0.16348572	0.46344678	1.2506685	-0.0074663639	0.38942984	1.3175714	0.1395972	0.36090576	1.2725703	-0.21352206	0.44432208	1.2625255	0.094192963	0.46153641	1.2561631	-0.06760997	0.36013107	0.42036731	0.063177532	0.37827176	0.4430383	0.18038358	0.47363583	0.60066638	0.11761625	0.34427414	0.10216149	0.10651314	0.32033597	0.10321959	0.18734308	0.34111829	0.31448257	0.20053941	0.27258472	0.034149902	0.13122229	0.47872659	0.045003483	0.14874036
3476	34.75	0.51073254	0.90231177	-0.099637764	0.48502576	0.89715338	0.098285217	0.40413434	0.9047337	0.12687814	0.32124374	0.89912018	-0.018350122	0.42614951	0.90324957	-0.16359297	0.46356729	1.250541	-0.0077533474	0.38937851	1.3175322	0.13917499	0.36126337	1.2726653	-0.21445702	0.44431055	1.2624709	0.093865143	0.46173438	1.2560145	-0.067903938	0.36019739	0.42031699	0.063115574	0.37829669	0.44299762	0.180321	0.47372974	0.60062463	0.11759017	0.34427008	0.10213017	0.10651176	0.32030881	0.10320338	0.1873367	0.34111438	0.31446671	0.20048373	0.27254156	0.033960663	0.1310802	0.47871564	0.045014889	0.14874525
3477	34.76	0.51095331	0.90221704	-0.099697205	0.48513922	0.89710815	0.098149506	0.40420331	0.90431812	0.12656323	0.32141217	0.89908472	-0.01854207	0.42639465	0.90315619	-0.163702	0.46368259	1.2504203	-0.0080381756	0.3893334	1.3175029	0.13875676	0.36162552	1.2727538	-0.21532521	0.44429984	1.2624248	0.093540138	0.46192572	1.2558754	-0.068195	0.36025885	0.42026596	0.063052429	0.37831476	0.44296048	0.18025768	0.4738049	0.60058728	0.11756219	0.34426657	0.10209784	0.10650982	0.32028131	0.10318659	0.18732887	0.34110593	0.31445056	0.20042751	0.27250623	0.033841084	0.13099864	0.47870425	0.045027802	0.14875099
3478	34.77	0.51115237	0.90212982	-0.099760124	0.48522684	0.89706512	0.098012688	0.40427856	0.90394122	0.12625365	0.32155185	0.89904236	-0.01873839	0.42661685	0.90306696	-0.16381322	0.46379129	1.2503071	-0.008320015	0.38929318	1.3174844	0.13834348	0.36199243	1.2728342	-0.21612302	0.44428918	1.2623877	0.09321891	0.46210956	1.2557462	-0.068482109	0.36031671	0.42021442	0.062987438	0.37832605	0.44292798	0.18019368	0.47386197	0.60055463	0.11753159	0.34426419	0.10206485	0.10650702	0.32025342	0.10316969	0.18731915	0.34109311	0.3144346	0.20037051	0.27247803	0.033778011	0.13096555	0.47869254	0.045041958	0.14875743
3479	34.78	0.51133258	0.90204999	-0.099826538	0.48528738	0.89702594	0.097876732	0.40436197	0.90361768	0.12595062	0.32166586	0.89899359	-0.018938766	0.4268194	0.90298212	-0.16392674	0.46389227	1.2502009	-0.0085979538	0.3892565	1.3174768	0.1379361	0.36236301	1.2729049	-0.21684993	0.44427762	1.2623594	0.092902527	0.4622854	1.2556271	-0.068764099	0.36037177	0.42016257	0.06292028	0.37833057	0.44290106	0.18012921	0.47390173	0.60052649	0.11749831	0.34426315	0.10203156	0.10650327	0.32022513	0.10315299	0.18730742	0.34107602	0.3144191	0.20031303	0.2724559	0.033758114	0.13096883	0.47868066	0.045057003	0.14876442
3480	34.79	0.51149637	0.90197687	-0.099896004	0.48532123	0.89699146	0.097743126	0.40445352	0.90335797	0.12565519	0.32175735	0.8989397	-0.019142408	0.42700528	0.90290192	-0.16404225	0.46398499	1.2501014	-0.0088709869	0.3892218	1.3174792	0.13753581	0.36273575	1.272964	-0.21750764	0.44426434	1.2623391	0.092592201	0.46245285	1.255517	-0.069039764	0.36042386	0.4201106	0.062850983	0.37832812	0.44288022	0.18006483	0.47392508	0.6005025	0.11746269	0.34426358	0.10199829	0.10649856	0.32019629	0.10313663	0.1872937	0.34105453	0.31440424	0.20025545	0.27243896	0.033768818	0.13099722	0.47866879	0.045072552	0.14877171
3481	34.8	0.51164603	0.90190979	-0.099967796	0.48532986	0.89696204	0.097612808	0.40455182	0.90316791	0.12536831	0.32182962	0.89888177	-0.019348122	0.42717746	0.90282629	-0.1641593	0.46406906	1.2500085	-0.009138032	0.38918756	1.3174911	0.13714388	0.36310846	1.2730105	-0.21809926	0.44424881	1.2623257	0.092289299	0.46261197	1.2554152	-0.069307877	0.36047238	0.42005865	0.062779873	0.37831857	0.44286542	0.18000107	0.47393298	0.60048199	0.11742523	0.34426535	0.10196527	0.10649306	0.32016705	0.10312064	0.18727843	0.34102884	0.31439011	0.20019843	0.27242624	0.033799046	0.13104103	0.47865704	0.045088215	0.14877914
